<svg width="254" height="78" viewBox="0 0 879 271" fill="none" xmlns="http://www.w3.org/2000/svg">
<path d="M34.7733 253.108C20.4416 242.884 8.86303 226.489 0 203.96L49.1804 182.168C53.8948 194.039 59.4389 203.221 65.7939 209.753C72.1489 216.284 79.013 219.541 86.3863 219.541C91.987 219.541 96.2865 217.988 99.2283 214.865C102.17 211.76 103.66 207.519 103.66 202.18C103.358 197.144 100.567 191.881 95.2493 186.39C89.9315 180.9 80.9176 172.986 68.2265 162.592L49.6141 147.03C34.2453 133.985 23.1005 122.115 16.1609 111.456C9.22133 100.778 5.75154 88.0365 5.75154 73.2125C5.75154 59.5811 9.37219 47.4076 16.6135 36.7487C23.8548 26.0708 33.5098 17.7027 45.6352 11.6254C57.7417 5.54811 70.7346 2.5 84.6137 2.5C105.583 2.5 123.083 8.21758 137.113 19.6149C151.143 31.0311 161.1 47.4076 167.021 68.7633L120.5 90.1191C117.539 80.6339 112.975 72.1144 106.771 64.5414C100.567 56.9685 93.7785 53.2009 86.3863 53.2009C81.6531 53.2009 77.9004 54.5262 75.0906 57.1957C72.2809 59.8651 70.8854 63.4244 70.8854 67.8735C70.8854 73.2125 73.6198 78.8543 79.0884 84.7801C84.5571 90.706 93.7785 99.0173 106.771 109.695L124.931 125.712C134.963 134.61 143.015 142.164 149.069 148.393C155.122 154.622 160.289 162.043 164.57 170.639C168.85 179.234 171 188.586 171 198.658C171 213.199 167.229 225.713 159.704 236.239C152.18 246.766 142.129 254.774 129.57 260.264C117.011 265.755 103.509 268.5 89.0264 268.5C67.1705 268.5 49.0861 263.388 34.7544 253.146L34.7733 253.108Z" fill="#246CB6"/>
<path d="M361.422 137.326C366.166 187.638 341.285 239.466 302.726 261.799C260.833 286.084 211.129 260.682 188.077 204.592C164.625 147.498 173.446 73.3751 208.69 31.4925C244.068 -10.5605 295.81 -10.5037 330.083 31.7009C331.855 33.8793 348.772 65.6464 350.353 68.1469C349.248 67.8248 337.703 83.8694 321.891 104.309C319.91 106.866 310.137 121.755 308.536 124.066C293.848 145.547 288.076 151.363 272.911 172.143C270.777 175.079 265.386 175.988 262.49 174.302C257.403 171.366 252.526 166.536 248.545 161.024C236.009 143.653 236.162 134.238 248.373 116.868C262.909 96.2012 268.605 91.3139 283.56 70.1169C256.337 52.4622 223.283 83.358 220.197 126.983C217.358 167.369 237.19 202.717 264.376 205.71C294.743 209.044 319.319 181.955 320.291 137.345" fill="#246CB6"/>
<path d="M366 6.5H434.728L455.881 171.21L475.272 6.5H544L491.568 264.5H417.12L366 6.5Z" fill="#246CB6"/>
<path d="M684.464 115.296C683.667 118.421 682.586 121.717 681.011 124.047C666.385 145.528 660.637 151.344 645.536 172.124C643.411 175.06 638.043 175.969 635.159 174.283C630.094 171.347 625.238 166.517 621.273 161.005C608.79 143.634 608.942 134.219 621.102 116.849C635.577 96.1822 641.249 91.295 656.141 70.098C629.032 52.4433 596.118 83.339 593.044 126.964C590.218 167.35 609.966 202.698 637.037 205.691C667.277 209.025 690.724 179.133 691.692 134.523C692.564 94.7426 702.467 61.4601 722.861 34.6181C765.697 -21.8126 834.2 -7.81383 867 68.6204C858.406 79.4178 848.712 90.5562 839.872 102.945C820.863 129.578 812.611 139.163 794.285 166.782C788.367 175.723 783.017 176.689 776.567 170.324C772.298 166.119 767.935 161.63 764.615 156.042C753.916 138.008 754.219 132.306 765.867 116.091C780.74 95.3488 785.122 92.0527 800.963 70.1169C768.201 52.4433 737.658 86.7487 735.913 137.837C733.883 197.545 713.565 239.447 675.187 261.799C633.471 286.084 583.976 260.682 561.022 204.592C537.669 147.498 546.452 73.3751 581.548 31.4925C616.777 -10.5605 668.301 -10.5037 702.429 31.7009C704.194 33.8793 705.616 36.626 707.21 39.1265C706.11 38.8044 691.009 89.628 684.445 115.314L684.464 115.296Z" fill="#246CB6"/>
<path d="M722 232.949C729.353 212.292 736.253 192.902 743.455 172.681C756.839 199.101 775.062 213.067 798.729 204.166C822.074 195.378 833.057 170.791 836.063 137H878.066C883.945 176.838 861.393 231.626 829.277 256.024C794.041 282.803 747.973 272.806 722 232.93V232.949Z" fill="#246CB6"/>
</svg>
