<svg width="894" height="423" viewBox="0 0 894 423" fill="none" xmlns="http://www.w3.org/2000/svg">
<g filter="url(#filter0_d_127_364)">
<path d="M41.7733 263.108C27.4416 252.884 15.863 236.489 7 213.96L56.1804 192.168C60.8948 204.039 66.4389 213.221 72.7939 219.753C79.1489 226.284 86.013 229.541 93.3863 229.541C98.987 229.541 103.287 227.988 106.228 224.865C109.17 221.76 110.66 217.519 110.66 212.18C110.358 207.144 107.567 201.881 102.249 196.39C96.9315 190.9 87.9176 182.986 75.2265 172.592L56.6141 157.03C41.2453 143.985 30.1005 132.115 23.1609 121.456C16.2213 110.778 12.7515 98.0365 12.7515 83.2125C12.7515 69.5811 16.3722 57.4076 23.6135 46.7487C30.8548 36.0708 40.5098 27.7027 52.6352 21.6254C64.7417 15.5481 77.7346 12.5 91.6137 12.5C112.583 12.5 130.083 18.2176 144.113 29.6149C158.143 41.0311 168.1 57.4076 174.021 78.7633L127.5 100.119C124.539 90.6339 119.975 82.1144 113.771 74.5414C107.567 66.9685 100.778 63.2009 93.3863 63.2009C88.6531 63.2009 84.9004 64.5262 82.0906 67.1957C79.2809 69.8651 77.8854 73.4244 77.8854 77.8735C77.8854 83.2125 80.6198 88.8543 86.0884 94.7801C91.5571 100.706 100.778 109.017 113.771 119.695L131.931 135.712C141.963 144.61 150.015 152.164 156.069 158.393C162.122 164.622 167.289 172.043 171.57 180.639C175.85 189.234 178 198.586 178 208.658C178 223.199 174.228 235.713 166.704 246.239C159.18 256.766 149.129 264.774 136.57 270.264C124.011 275.755 110.509 278.5 96.0264 278.5C74.1705 278.5 56.0861 273.388 41.7544 263.146L41.7733 263.108Z" fill="#246CB6"/>
<path d="M368.422 147.326C373.166 197.638 348.285 249.466 309.726 271.799C267.833 296.084 218.129 270.682 195.077 214.592C171.625 157.498 180.446 83.3751 215.69 41.4925C251.068 -0.56054 302.81 -0.503718 337.083 41.7009C338.855 43.8793 355.772 75.6464 357.353 78.1469C356.248 77.8248 344.703 93.8694 328.891 114.309C326.91 116.866 317.137 131.755 315.536 134.066C300.848 155.547 295.076 161.363 279.911 182.143C277.777 185.079 272.386 185.988 269.49 184.302C264.403 181.366 259.526 176.536 255.545 171.024C243.009 153.653 243.162 144.238 255.373 126.868C269.909 106.201 275.605 101.314 290.56 80.1169C263.337 62.4622 230.283 93.358 227.197 136.983C224.358 177.369 244.19 212.717 271.376 215.71C301.743 219.044 326.319 191.955 327.291 147.345" fill="#246CB6"/>
<path d="M373 16.5H441.728L462.881 181.21L482.272 16.5H551L498.568 274.5H424.12L373 16.5Z" fill="#246CB6"/>
<path d="M691.464 125.296C690.667 128.421 689.586 131.717 688.011 134.047C673.385 155.528 667.637 161.344 652.536 182.124C650.411 185.06 645.043 185.969 642.159 184.283C637.094 181.347 632.238 176.517 628.273 171.005C615.79 153.634 615.942 144.219 628.102 126.849C642.577 106.182 648.249 101.295 663.141 80.098C636.032 62.4433 603.118 93.339 600.044 136.964C597.218 177.35 616.966 212.698 644.037 215.691C674.277 219.025 697.724 189.133 698.692 144.523C699.564 104.743 709.467 71.4601 729.861 44.6181C772.697 -11.8126 841.2 2.18617 874 78.6204C865.406 89.4178 855.712 100.556 846.872 112.945C827.863 139.578 819.611 149.163 801.285 176.782C795.367 185.723 790.017 186.689 783.567 180.324C779.298 176.119 774.935 171.63 771.615 166.042C760.916 148.008 761.219 142.306 772.867 126.091C787.74 105.349 792.123 102.053 807.963 80.1169C775.201 62.4433 744.658 96.7487 742.913 147.837C740.883 207.545 720.565 249.447 682.187 271.799C640.471 296.084 590.976 270.682 568.022 214.592C544.669 157.498 553.452 83.3751 588.548 41.4925C623.777 -0.560544 675.301 -0.503714 709.429 41.7009C711.194 43.8793 712.616 46.626 714.21 49.1265C713.11 48.8044 698.009 99.628 691.445 125.314L691.464 125.296Z" fill="#246CB6"/>
<path d="M729 242.949C736.353 222.292 743.253 202.902 750.455 182.681C763.839 209.101 782.062 223.067 805.729 214.166C829.074 205.378 840.057 180.791 843.063 147H885.066C890.945 186.838 868.393 241.626 836.277 266.024C801.041 292.803 754.973 282.806 729 242.93V242.949Z" fill="#246CB6"/>
</g>
<path d="M22.2919 318.131C22.1555 316.756 21.5703 315.687 20.5362 314.926C19.5021 314.165 18.0987 313.784 16.326 313.784C15.1214 313.784 14.1044 313.955 13.2749 314.295C12.4453 314.625 11.8089 315.085 11.3658 315.676C10.9339 316.267 10.718 316.938 10.718 317.688C10.6953 318.312 10.826 318.858 11.1101 319.324C11.4055 319.79 11.8089 320.193 12.3203 320.534C12.8317 320.864 13.4226 321.153 14.093 321.403C14.7635 321.642 15.4794 321.847 16.2408 322.017L19.3771 322.767C20.8999 323.108 22.2976 323.562 23.5703 324.131C24.843 324.699 25.9453 325.398 26.8771 326.227C27.8089 327.057 28.5305 328.034 29.0419 329.159C29.5646 330.284 29.8317 331.574 29.843 333.028C29.8317 335.165 29.2862 337.017 28.2067 338.585C27.1385 340.142 25.593 341.352 23.5703 342.216C21.5589 343.068 19.1328 343.494 16.2919 343.494C13.4737 343.494 11.0192 343.062 8.92827 342.199C6.84872 341.335 5.22372 340.057 4.05327 338.364C2.89418 336.659 2.28622 334.551 2.2294 332.04H9.37145C9.45099 333.21 9.78622 334.187 10.3771 334.972C10.9794 335.744 11.7805 336.33 12.7805 336.727C13.7919 337.114 14.9339 337.307 16.2067 337.307C17.4567 337.307 18.5419 337.125 19.4624 336.761C20.3942 336.398 21.1158 335.892 21.6271 335.244C22.1385 334.597 22.3942 333.852 22.3942 333.011C22.3942 332.227 22.1612 331.568 21.6953 331.034C21.2408 330.5 20.5703 330.045 19.6839 329.67C18.8089 329.295 17.7351 328.955 16.4624 328.648L12.6612 327.693C9.71804 326.977 7.39418 325.858 5.68963 324.335C3.98509 322.812 3.13849 320.761 3.14986 318.182C3.13849 316.068 3.70099 314.222 4.83736 312.642C5.98509 311.062 7.55895 309.83 9.55895 308.943C11.5589 308.057 13.8317 307.614 16.3771 307.614C18.968 307.614 21.2294 308.057 23.1612 308.943C25.1044 309.83 26.6158 311.062 27.6953 312.642C28.7749 314.222 29.3317 316.051 29.3658 318.131H22.2919ZM34.6712 343V316.818H41.9325V343H34.6712ZM38.3189 313.443C37.2393 313.443 36.3132 313.085 35.5405 312.369C34.7791 311.642 34.3984 310.773 34.3984 309.761C34.3984 308.761 34.7791 307.903 35.5405 307.188C36.3132 306.46 37.2393 306.097 38.3189 306.097C39.3984 306.097 40.3189 306.46 41.0803 307.188C41.853 307.903 42.2393 308.761 42.2393 309.761C42.2393 310.773 41.853 311.642 41.0803 312.369C40.3189 313.085 39.3984 313.443 38.3189 313.443ZM69.5334 324.284L62.8857 324.693C62.772 324.125 62.5277 323.614 62.1527 323.159C61.7777 322.693 61.2834 322.324 60.6697 322.051C60.0675 321.767 59.3459 321.625 58.505 321.625C57.38 321.625 56.4311 321.864 55.6584 322.341C54.8857 322.807 54.4993 323.432 54.4993 324.216C54.4993 324.841 54.7493 325.369 55.2493 325.801C55.7493 326.233 56.6072 326.58 57.8232 326.841L62.5618 327.795C65.1072 328.318 67.005 329.159 68.255 330.318C69.505 331.477 70.13 333 70.13 334.886C70.13 336.602 69.6243 338.108 68.6129 339.403C67.6129 340.699 66.2379 341.71 64.4879 342.438C62.7493 343.153 60.7436 343.511 58.4709 343.511C55.005 343.511 52.2436 342.79 50.1868 341.347C48.1413 339.892 46.9425 337.915 46.5902 335.415L53.7322 335.04C53.9482 336.097 54.4709 336.903 55.3004 337.46C56.13 338.006 57.1925 338.278 58.4879 338.278C59.7607 338.278 60.7834 338.034 61.5561 337.545C62.3402 337.045 62.7379 336.403 62.7493 335.619C62.7379 334.96 62.4595 334.42 61.9141 334C61.3686 333.568 60.5277 333.239 59.3913 333.011L54.8572 332.108C52.3004 331.597 50.397 330.71 49.147 329.449C47.9084 328.187 47.2891 326.58 47.2891 324.625C47.2891 322.943 47.7436 321.494 48.6527 320.278C49.5732 319.062 50.8629 318.125 52.522 317.466C54.1925 316.807 56.147 316.477 58.3857 316.477C61.6925 316.477 64.2947 317.176 66.1925 318.574C68.1016 319.972 69.2152 321.875 69.5334 324.284ZM88.6286 316.818V322.273H72.8615V316.818H88.6286ZM76.4411 310.545H83.7024V334.955C83.7024 335.625 83.8047 336.148 84.0092 336.523C84.2138 336.886 84.4979 337.142 84.8615 337.29C85.2365 337.437 85.6683 337.511 86.157 337.511C86.4979 337.511 86.8388 337.483 87.1797 337.426C87.5206 337.358 87.782 337.307 87.9638 337.273L89.1058 342.676C88.7422 342.79 88.2308 342.92 87.5717 343.068C86.9126 343.227 86.1115 343.324 85.1683 343.358C83.4183 343.426 81.8842 343.193 80.5661 342.659C79.2592 342.125 78.2422 341.295 77.5149 340.17C76.7876 339.045 76.4297 337.625 76.4411 335.909V310.545ZM105.009 343.511C102.316 343.511 99.9979 342.966 98.0547 341.875C96.1229 340.773 94.6342 339.216 93.5888 337.205C92.5433 335.182 92.0206 332.79 92.0206 330.028C92.0206 327.335 92.5433 324.972 93.5888 322.938C94.6342 320.903 96.1058 319.318 98.0036 318.182C99.9126 317.045 102.151 316.477 104.719 316.477C106.447 316.477 108.055 316.756 109.543 317.312C111.043 317.858 112.35 318.682 113.464 319.784C114.589 320.886 115.464 322.273 116.089 323.943C116.714 325.602 117.026 327.545 117.026 329.773V331.767H94.9183V327.267H110.191C110.191 326.222 109.964 325.295 109.509 324.489C109.055 323.682 108.424 323.051 107.617 322.597C106.822 322.131 105.896 321.898 104.839 321.898C103.737 321.898 102.759 322.153 101.907 322.665C101.066 323.165 100.407 323.841 99.9297 324.693C99.4524 325.534 99.2081 326.472 99.1967 327.506V331.784C99.1967 333.08 99.4354 334.199 99.9126 335.142C100.401 336.085 101.089 336.812 101.975 337.324C102.862 337.835 103.913 338.091 105.129 338.091C105.935 338.091 106.674 337.977 107.344 337.75C108.015 337.523 108.589 337.182 109.066 336.727C109.543 336.273 109.907 335.716 110.157 335.057L116.873 335.5C116.532 337.114 115.833 338.523 114.776 339.727C113.731 340.92 112.379 341.852 110.719 342.523C109.072 343.182 107.168 343.511 105.009 343.511ZM121.765 343V316.818H128.685V321.438H128.992C129.538 319.903 130.447 318.693 131.719 317.807C132.992 316.92 134.515 316.477 136.288 316.477C138.083 316.477 139.612 316.926 140.873 317.824C142.134 318.71 142.975 319.915 143.396 321.438H143.668C144.202 319.938 145.168 318.739 146.566 317.841C147.975 316.932 149.64 316.477 151.56 316.477C154.004 316.477 155.987 317.256 157.509 318.812C159.043 320.358 159.81 322.551 159.81 325.392V343H152.566V326.824C152.566 325.369 152.18 324.278 151.407 323.551C150.634 322.824 149.668 322.46 148.509 322.46C147.191 322.46 146.163 322.881 145.424 323.722C144.685 324.551 144.316 325.648 144.316 327.011V343H137.276V326.67C137.276 325.386 136.907 324.364 136.168 323.602C135.441 322.841 134.481 322.46 133.288 322.46C132.481 322.46 131.754 322.665 131.106 323.074C130.469 323.472 129.964 324.034 129.589 324.761C129.214 325.477 129.026 326.318 129.026 327.284V343H121.765ZM173.012 343.494C171.342 343.494 169.853 343.205 168.546 342.625C167.239 342.034 166.205 341.165 165.444 340.017C164.694 338.858 164.319 337.415 164.319 335.688C164.319 334.233 164.586 333.011 165.12 332.023C165.654 331.034 166.381 330.239 167.302 329.636C168.222 329.034 169.268 328.58 170.438 328.273C171.62 327.966 172.859 327.75 174.154 327.625C175.677 327.466 176.904 327.318 177.836 327.182C178.768 327.034 179.444 326.818 179.864 326.534C180.285 326.25 180.495 325.83 180.495 325.273V325.17C180.495 324.091 180.154 323.256 179.472 322.665C178.802 322.074 177.847 321.778 176.609 321.778C175.302 321.778 174.262 322.068 173.489 322.648C172.717 323.216 172.205 323.932 171.955 324.795L165.239 324.25C165.58 322.659 166.251 321.284 167.251 320.125C168.251 318.955 169.54 318.057 171.12 317.432C172.711 316.795 174.552 316.477 176.643 316.477C178.097 316.477 179.489 316.648 180.819 316.989C182.16 317.33 183.347 317.858 184.381 318.574C185.427 319.29 186.251 320.21 186.853 321.335C187.455 322.449 187.756 323.784 187.756 325.341V343H180.87V339.369H180.665C180.245 340.188 179.683 340.909 178.978 341.534C178.273 342.148 177.427 342.631 176.438 342.983C175.45 343.324 174.308 343.494 173.012 343.494ZM175.092 338.483C176.16 338.483 177.103 338.273 177.921 337.852C178.739 337.42 179.381 336.841 179.847 336.114C180.313 335.386 180.546 334.562 180.546 333.642V330.864C180.319 331.011 180.006 331.148 179.609 331.273C179.222 331.386 178.785 331.494 178.296 331.597C177.808 331.687 177.319 331.773 176.83 331.852C176.342 331.92 175.898 331.983 175.501 332.04C174.648 332.165 173.904 332.364 173.268 332.636C172.631 332.909 172.137 333.278 171.785 333.744C171.433 334.199 171.256 334.767 171.256 335.449C171.256 336.438 171.614 337.193 172.33 337.716C173.058 338.227 173.978 338.483 175.092 338.483ZM204.636 343V308.091H228.158V314.176H212.016V322.494H226.948V328.58H212.016V336.915H228.227V343H204.636ZM245.719 343.511C243.038 343.511 240.731 342.943 238.799 341.807C236.879 340.659 235.401 339.068 234.367 337.034C233.344 335 232.833 332.659 232.833 330.011C232.833 327.33 233.35 324.977 234.384 322.955C235.43 320.92 236.913 319.335 238.833 318.199C240.754 317.051 243.038 316.477 245.685 316.477C247.969 316.477 249.969 316.892 251.685 317.722C253.401 318.551 254.759 319.716 255.759 321.216C256.759 322.716 257.31 324.477 257.413 326.5H250.56C250.367 325.193 249.856 324.142 249.026 323.347C248.208 322.54 247.134 322.136 245.805 322.136C244.68 322.136 243.697 322.443 242.856 323.057C242.026 323.659 241.379 324.54 240.913 325.699C240.447 326.858 240.214 328.261 240.214 329.909C240.214 331.58 240.441 333 240.896 334.17C241.362 335.341 242.015 336.233 242.856 336.847C243.697 337.46 244.68 337.767 245.805 337.767C246.634 337.767 247.379 337.597 248.038 337.256C248.708 336.915 249.259 336.42 249.691 335.773C250.134 335.114 250.424 334.324 250.56 333.403H257.413C257.299 335.403 256.754 337.165 255.776 338.688C254.81 340.199 253.475 341.381 251.771 342.233C250.066 343.085 248.049 343.511 245.719 343.511ZM278.852 331.852V316.818H286.113V343H279.141V338.244H278.869C278.278 339.778 277.295 341.011 275.92 341.943C274.556 342.875 272.891 343.341 270.925 343.341C269.175 343.341 267.636 342.943 266.306 342.148C264.977 341.352 263.937 340.222 263.187 338.756C262.448 337.29 262.073 335.534 262.062 333.489V316.818H269.323V332.193C269.335 333.739 269.749 334.96 270.567 335.858C271.386 336.756 272.482 337.205 273.857 337.205C274.732 337.205 275.55 337.006 276.312 336.608C277.073 336.199 277.687 335.597 278.153 334.801C278.63 334.006 278.863 333.023 278.852 331.852ZM299.387 343.494C297.717 343.494 296.228 343.205 294.921 342.625C293.614 342.034 292.58 341.165 291.819 340.017C291.069 338.858 290.694 337.415 290.694 335.688C290.694 334.233 290.961 333.011 291.495 332.023C292.029 331.034 292.756 330.239 293.677 329.636C294.597 329.034 295.643 328.58 296.813 328.273C297.995 327.966 299.234 327.75 300.529 327.625C302.052 327.466 303.279 327.318 304.211 327.182C305.143 327.034 305.819 326.818 306.239 326.534C306.66 326.25 306.87 325.83 306.87 325.273V325.17C306.87 324.091 306.529 323.256 305.847 322.665C305.177 322.074 304.222 321.778 302.984 321.778C301.677 321.778 300.637 322.068 299.864 322.648C299.092 323.216 298.58 323.932 298.33 324.795L291.614 324.25C291.955 322.659 292.626 321.284 293.626 320.125C294.626 318.955 295.915 318.057 297.495 317.432C299.086 316.795 300.927 316.477 303.018 316.477C304.472 316.477 305.864 316.648 307.194 316.989C308.535 317.33 309.722 317.858 310.756 318.574C311.802 319.29 312.626 320.21 313.228 321.335C313.83 322.449 314.131 323.784 314.131 325.341V343H307.245V339.369H307.04C306.62 340.188 306.058 340.909 305.353 341.534C304.648 342.148 303.802 342.631 302.813 342.983C301.825 343.324 300.683 343.494 299.387 343.494ZM301.467 338.483C302.535 338.483 303.478 338.273 304.296 337.852C305.114 337.42 305.756 336.841 306.222 336.114C306.688 335.386 306.921 334.562 306.921 333.642V330.864C306.694 331.011 306.381 331.148 305.984 331.273C305.597 331.386 305.16 331.494 304.671 331.597C304.183 331.687 303.694 331.773 303.205 331.852C302.717 331.92 302.273 331.983 301.876 332.04C301.023 332.165 300.279 332.364 299.643 332.636C299.006 332.909 298.512 333.278 298.16 333.744C297.808 334.199 297.631 334.767 297.631 335.449C297.631 336.438 297.989 337.193 298.705 337.716C299.433 338.227 300.353 338.483 301.467 338.483ZM333.691 316.818V322.273H317.924V316.818H333.691ZM321.504 310.545H328.765V334.955C328.765 335.625 328.867 336.148 329.072 336.523C329.276 336.886 329.56 337.142 329.924 337.29C330.299 337.437 330.731 337.511 331.219 337.511C331.56 337.511 331.901 337.483 332.242 337.426C332.583 337.358 332.844 337.307 333.026 337.273L334.168 342.676C333.805 342.79 333.293 342.92 332.634 343.068C331.975 343.227 331.174 343.324 330.231 343.358C328.481 343.426 326.947 343.193 325.629 342.659C324.322 342.125 323.305 341.295 322.577 340.17C321.85 339.045 321.492 337.625 321.504 335.909V310.545ZM349.969 343.511C347.322 343.511 345.032 342.949 343.1 341.824C341.18 340.687 339.697 339.108 338.651 337.085C337.606 335.051 337.083 332.693 337.083 330.011C337.083 327.307 337.606 324.943 338.651 322.92C339.697 320.886 341.18 319.307 343.1 318.182C345.032 317.045 347.322 316.477 349.969 316.477C352.617 316.477 354.901 317.045 356.822 318.182C358.754 319.307 360.242 320.886 361.288 322.92C362.333 324.943 362.856 327.307 362.856 330.011C362.856 332.693 362.333 335.051 361.288 337.085C360.242 339.108 358.754 340.687 356.822 341.824C354.901 342.949 352.617 343.511 349.969 343.511ZM350.004 337.886C351.208 337.886 352.214 337.545 353.021 336.864C353.827 336.17 354.435 335.227 354.844 334.034C355.265 332.841 355.475 331.483 355.475 329.96C355.475 328.438 355.265 327.08 354.844 325.886C354.435 324.693 353.827 323.75 353.021 323.057C352.214 322.364 351.208 322.017 350.004 322.017C348.788 322.017 347.765 322.364 346.935 323.057C346.117 323.75 345.498 324.693 345.077 325.886C344.668 327.08 344.464 328.438 344.464 329.96C344.464 331.483 344.668 332.841 345.077 334.034C345.498 335.227 346.117 336.17 346.935 336.864C347.765 337.545 348.788 337.886 350.004 337.886ZM367.577 343V316.818H374.617V321.386H374.89C375.367 319.761 376.168 318.534 377.293 317.705C378.418 316.864 379.714 316.443 381.18 316.443C381.543 316.443 381.935 316.466 382.356 316.511C382.776 316.557 383.146 316.619 383.464 316.699V323.142C383.123 323.04 382.651 322.949 382.049 322.869C381.447 322.79 380.896 322.75 380.396 322.75C379.327 322.75 378.373 322.983 377.532 323.449C376.702 323.903 376.043 324.54 375.555 325.358C375.077 326.176 374.839 327.119 374.839 328.188V343H367.577ZM387.218 343V316.818H394.479V343H387.218ZM390.866 313.443C389.786 313.443 388.86 313.085 388.087 312.369C387.326 311.642 386.945 310.773 386.945 309.761C386.945 308.761 387.326 307.903 388.087 307.188C388.86 306.46 389.786 306.097 390.866 306.097C391.945 306.097 392.866 306.46 393.627 307.188C394.4 307.903 394.786 308.761 394.786 309.761C394.786 310.773 394.4 311.642 393.627 312.369C392.866 313.085 391.945 313.443 390.866 313.443ZM407.762 343.494C406.092 343.494 404.603 343.205 403.296 342.625C401.989 342.034 400.955 341.165 400.194 340.017C399.444 338.858 399.069 337.415 399.069 335.688C399.069 334.233 399.336 333.011 399.87 332.023C400.404 331.034 401.131 330.239 402.052 329.636C402.972 329.034 404.018 328.58 405.188 328.273C406.37 327.966 407.609 327.75 408.904 327.625C410.427 327.466 411.654 327.318 412.586 327.182C413.518 327.034 414.194 326.818 414.614 326.534C415.035 326.25 415.245 325.83 415.245 325.273V325.17C415.245 324.091 414.904 323.256 414.222 322.665C413.552 322.074 412.597 321.778 411.359 321.778C410.052 321.778 409.012 322.068 408.239 322.648C407.467 323.216 406.955 323.932 406.705 324.795L399.989 324.25C400.33 322.659 401.001 321.284 402.001 320.125C403.001 318.955 404.29 318.057 405.87 317.432C407.461 316.795 409.302 316.477 411.393 316.477C412.847 316.477 414.239 316.648 415.569 316.989C416.91 317.33 418.097 317.858 419.131 318.574C420.177 319.29 421.001 320.21 421.603 321.335C422.205 322.449 422.506 323.784 422.506 325.341V343H415.62V339.369H415.415C414.995 340.188 414.433 340.909 413.728 341.534C413.023 342.148 412.177 342.631 411.188 342.983C410.2 343.324 409.058 343.494 407.762 343.494ZM409.842 338.483C410.91 338.483 411.853 338.273 412.671 337.852C413.489 337.42 414.131 336.841 414.597 336.114C415.063 335.386 415.296 334.562 415.296 333.642V330.864C415.069 331.011 414.756 331.148 414.359 331.273C413.972 331.386 413.535 331.494 413.046 331.597C412.558 331.687 412.069 331.773 411.58 331.852C411.092 331.92 410.648 331.983 410.251 332.04C409.398 332.165 408.654 332.364 408.018 332.636C407.381 332.909 406.887 333.278 406.535 333.744C406.183 334.199 406.006 334.767 406.006 335.449C406.006 336.438 406.364 337.193 407.08 337.716C407.808 338.227 408.728 338.483 409.842 338.483ZM435.401 327.864V343H428.14V316.818H435.06V321.438H435.367C435.947 319.915 436.918 318.71 438.282 317.824C439.646 316.926 441.299 316.477 443.242 316.477C445.06 316.477 446.646 316.875 447.998 317.67C449.35 318.466 450.401 319.602 451.151 321.08C451.901 322.545 452.276 324.295 452.276 326.33V343H445.015V327.625C445.026 326.023 444.617 324.773 443.788 323.875C442.958 322.966 441.816 322.511 440.362 322.511C439.384 322.511 438.521 322.722 437.771 323.142C437.032 323.562 436.452 324.176 436.032 324.983C435.623 325.778 435.413 326.739 435.401 327.864ZM469.829 343.511C467.181 343.511 464.891 342.949 462.96 341.824C461.039 340.687 459.556 339.108 458.511 337.085C457.465 335.051 456.942 332.693 456.942 330.011C456.942 327.307 457.465 324.943 458.511 322.92C459.556 320.886 461.039 319.307 462.96 318.182C464.891 317.045 467.181 316.477 469.829 316.477C472.477 316.477 474.761 317.045 476.681 318.182C478.613 319.307 480.102 320.886 481.147 322.92C482.192 324.943 482.715 327.307 482.715 330.011C482.715 332.693 482.192 335.051 481.147 337.085C480.102 339.108 478.613 340.687 476.681 341.824C474.761 342.949 472.477 343.511 469.829 343.511ZM469.863 337.886C471.067 337.886 472.073 337.545 472.88 336.864C473.687 336.17 474.295 335.227 474.704 334.034C475.124 332.841 475.335 331.483 475.335 329.96C475.335 328.438 475.124 327.08 474.704 325.886C474.295 324.693 473.687 323.75 472.88 323.057C472.073 322.364 471.067 322.017 469.863 322.017C468.647 322.017 467.624 322.364 466.795 323.057C465.977 323.75 465.357 324.693 464.937 325.886C464.528 327.08 464.323 328.438 464.323 329.96C464.323 331.483 464.528 332.841 464.937 334.034C465.357 335.227 465.977 336.17 466.795 336.864C467.624 337.545 468.647 337.886 469.863 337.886ZM508.194 343.426C506.205 343.426 504.404 342.915 502.79 341.892C501.188 340.858 499.915 339.341 498.972 337.341C498.04 335.33 497.575 332.864 497.575 329.943C497.575 326.943 498.058 324.449 499.023 322.46C499.989 320.46 501.273 318.966 502.876 317.977C504.489 316.977 506.256 316.477 508.177 316.477C509.643 316.477 510.864 316.727 511.842 317.227C512.83 317.716 513.626 318.33 514.228 319.068C514.842 319.795 515.308 320.511 515.626 321.216H515.847V308.091H523.092V343H515.933V338.807H515.626C515.285 339.534 514.802 340.256 514.177 340.972C513.563 341.676 512.762 342.261 511.773 342.727C510.796 343.193 509.603 343.426 508.194 343.426ZM510.495 337.648C511.665 337.648 512.654 337.33 513.461 336.693C514.279 336.045 514.904 335.142 515.336 333.983C515.779 332.824 516.001 331.466 516.001 329.909C516.001 328.352 515.785 327 515.353 325.852C514.921 324.705 514.296 323.818 513.478 323.193C512.66 322.568 511.665 322.256 510.495 322.256C509.302 322.256 508.296 322.58 507.478 323.227C506.66 323.875 506.04 324.773 505.62 325.92C505.2 327.068 504.989 328.398 504.989 329.909C504.989 331.432 505.2 332.778 505.62 333.949C506.052 335.108 506.671 336.017 507.478 336.676C508.296 337.324 509.302 337.648 510.495 337.648ZM540.994 343.511C538.3 343.511 535.982 342.966 534.039 341.875C532.107 340.773 530.619 339.216 529.573 337.205C528.528 335.182 528.005 332.79 528.005 330.028C528.005 327.335 528.528 324.972 529.573 322.938C530.619 320.903 532.09 319.318 533.988 318.182C535.897 317.045 538.136 316.477 540.704 316.477C542.431 316.477 544.039 316.756 545.528 317.312C547.028 317.858 548.335 318.682 549.448 319.784C550.573 320.886 551.448 322.273 552.073 323.943C552.698 325.602 553.011 327.545 553.011 329.773V331.767H530.903V327.267H546.175C546.175 326.222 545.948 325.295 545.494 324.489C545.039 323.682 544.408 323.051 543.602 322.597C542.806 322.131 541.88 321.898 540.823 321.898C539.721 321.898 538.744 322.153 537.891 322.665C537.05 323.165 536.391 323.841 535.914 324.693C535.437 325.534 535.192 326.472 535.181 327.506V331.784C535.181 333.08 535.42 334.199 535.897 335.142C536.386 336.085 537.073 336.812 537.96 337.324C538.846 337.835 539.897 338.091 541.113 338.091C541.92 338.091 542.658 337.977 543.329 337.75C543.999 337.523 544.573 337.182 545.05 336.727C545.528 336.273 545.891 335.716 546.141 335.057L552.857 335.5C552.516 337.114 551.817 338.523 550.761 339.727C549.715 340.92 548.363 341.852 546.704 342.523C545.056 343.182 543.153 343.511 540.994 343.511ZM575.302 308.091L583.739 334.614H584.063L592.518 308.091H600.7L588.665 343H579.154L567.103 308.091H575.302ZM604.765 343V316.818H612.026V343H604.765ZM608.413 313.443C607.333 313.443 606.407 313.085 605.634 312.369C604.873 311.642 604.492 310.773 604.492 309.761C604.492 308.761 604.873 307.903 605.634 307.188C606.407 306.46 607.333 306.097 608.413 306.097C609.492 306.097 610.413 306.46 611.174 307.188C611.947 307.903 612.333 308.761 612.333 309.761C612.333 310.773 611.947 311.642 611.174 312.369C610.413 313.085 609.492 313.443 608.413 313.443ZM639.627 324.284L632.979 324.693C632.866 324.125 632.621 323.614 632.246 323.159C631.871 322.693 631.377 322.324 630.763 322.051C630.161 321.767 629.44 321.625 628.599 321.625C627.474 321.625 626.525 321.864 625.752 322.341C624.979 322.807 624.593 323.432 624.593 324.216C624.593 324.841 624.843 325.369 625.343 325.801C625.843 326.233 626.701 326.58 627.917 326.841L632.656 327.795C635.201 328.318 637.099 329.159 638.349 330.318C639.599 331.477 640.224 333 640.224 334.886C640.224 336.602 639.718 338.108 638.707 339.403C637.707 340.699 636.332 341.71 634.582 342.438C632.843 343.153 630.837 343.511 628.565 343.511C625.099 343.511 622.337 342.79 620.281 341.347C618.235 339.892 617.036 337.915 616.684 335.415L623.826 335.04C624.042 336.097 624.565 336.903 625.394 337.46C626.224 338.006 627.286 338.278 628.582 338.278C629.854 338.278 630.877 338.034 631.65 337.545C632.434 337.045 632.832 336.403 632.843 335.619C632.832 334.96 632.553 334.42 632.008 334C631.462 333.568 630.621 333.239 629.485 333.011L624.951 332.108C622.394 331.597 620.491 330.71 619.241 329.449C618.002 328.187 617.383 326.58 617.383 324.625C617.383 322.943 617.837 321.494 618.746 320.278C619.667 319.062 620.957 318.125 622.616 317.466C624.286 316.807 626.241 316.477 628.479 316.477C631.786 316.477 634.388 317.176 636.286 318.574C638.195 319.972 639.309 321.875 639.627 324.284ZM661.586 331.852V316.818H668.847V343H661.876V338.244H661.603C661.012 339.778 660.029 341.011 658.654 341.943C657.29 342.875 655.626 343.341 653.66 343.341C651.91 343.341 650.37 342.943 649.04 342.148C647.711 341.352 646.671 340.222 645.921 338.756C645.183 337.29 644.808 335.534 644.796 333.489V316.818H652.058V332.193C652.069 333.739 652.484 334.96 653.302 335.858C654.12 336.756 655.217 337.205 656.592 337.205C657.467 337.205 658.285 337.006 659.046 336.608C659.808 336.199 660.421 335.597 660.887 334.801C661.364 334.006 661.597 333.023 661.586 331.852ZM682.121 343.494C680.451 343.494 678.962 343.205 677.656 342.625C676.349 342.034 675.315 341.165 674.553 340.017C673.803 338.858 673.428 337.415 673.428 335.688C673.428 334.233 673.695 333.011 674.229 332.023C674.763 331.034 675.491 330.239 676.411 329.636C677.332 329.034 678.377 328.58 679.548 328.273C680.729 327.966 681.968 327.75 683.263 327.625C684.786 327.466 686.013 327.318 686.945 327.182C687.877 327.034 688.553 326.818 688.974 326.534C689.394 326.25 689.604 325.83 689.604 325.273V325.17C689.604 324.091 689.263 323.256 688.582 322.665C687.911 322.074 686.957 321.778 685.718 321.778C684.411 321.778 683.371 322.068 682.599 322.648C681.826 323.216 681.315 323.932 681.065 324.795L674.349 324.25C674.69 322.659 675.36 321.284 676.36 320.125C677.36 318.955 678.65 318.057 680.229 317.432C681.82 316.795 683.661 316.477 685.752 316.477C687.207 316.477 688.599 316.648 689.928 316.989C691.269 317.33 692.457 317.858 693.491 318.574C694.536 319.29 695.36 320.21 695.962 321.335C696.565 322.449 696.866 323.784 696.866 325.341V343H689.979V339.369H689.775C689.354 340.188 688.792 340.909 688.087 341.534C687.383 342.148 686.536 342.631 685.548 342.983C684.559 343.324 683.417 343.494 682.121 343.494ZM684.201 338.483C685.269 338.483 686.212 338.273 687.031 337.852C687.849 337.42 688.491 336.841 688.957 336.114C689.423 335.386 689.656 334.562 689.656 333.642V330.864C689.428 331.011 689.116 331.148 688.718 331.273C688.332 331.386 687.894 331.494 687.406 331.597C686.917 331.687 686.428 331.773 685.94 331.852C685.451 331.92 685.008 331.983 684.61 332.04C683.758 332.165 683.013 332.364 682.377 332.636C681.741 332.909 681.246 333.278 680.894 333.744C680.542 334.199 680.366 334.767 680.366 335.449C680.366 336.438 680.724 337.193 681.44 337.716C682.167 338.227 683.087 338.483 684.201 338.483ZM709.761 308.091V343H702.499V308.091H709.761ZM715.577 343V316.818H722.839V343H715.577ZM719.225 313.443C718.146 313.443 717.219 313.085 716.447 312.369C715.685 311.642 715.305 310.773 715.305 309.761C715.305 308.761 715.685 307.903 716.447 307.188C717.219 306.46 718.146 306.097 719.225 306.097C720.305 306.097 721.225 306.46 721.987 307.188C722.759 307.903 723.146 308.761 723.146 309.761C723.146 310.773 722.759 311.642 721.987 312.369C721.225 313.085 720.305 313.443 719.225 313.443ZM728.519 343V338.67L741.337 322.801V322.614H728.962V316.818H750.082V321.54L738.048 337.017V337.205H750.525V343H728.519ZM763.543 343.494C761.873 343.494 760.384 343.205 759.077 342.625C757.771 342.034 756.737 341.165 755.975 340.017C755.225 338.858 754.85 337.415 754.85 335.688C754.85 334.233 755.117 333.011 755.651 332.023C756.185 331.034 756.913 330.239 757.833 329.636C758.754 329.034 759.799 328.58 760.969 328.273C762.151 327.966 763.39 327.75 764.685 327.625C766.208 327.466 767.435 327.318 768.367 327.182C769.299 327.034 769.975 326.818 770.396 326.534C770.816 326.25 771.026 325.83 771.026 325.273V325.17C771.026 324.091 770.685 323.256 770.004 322.665C769.333 322.074 768.379 321.778 767.14 321.778C765.833 321.778 764.793 322.068 764.021 322.648C763.248 323.216 762.737 323.932 762.487 324.795L755.771 324.25C756.112 322.659 756.782 321.284 757.782 320.125C758.782 318.955 760.072 318.057 761.651 317.432C763.242 316.795 765.083 316.477 767.174 316.477C768.629 316.477 770.021 316.648 771.35 316.989C772.691 317.33 773.879 317.858 774.913 318.574C775.958 319.29 776.782 320.21 777.384 321.335C777.987 322.449 778.288 323.784 778.288 325.341V343H771.401V339.369H771.197C770.776 340.188 770.214 340.909 769.509 341.534C768.805 342.148 767.958 342.631 766.969 342.983C765.981 343.324 764.839 343.494 763.543 343.494ZM765.623 338.483C766.691 338.483 767.634 338.273 768.452 337.852C769.271 337.42 769.913 336.841 770.379 336.114C770.844 335.386 771.077 334.562 771.077 333.642V330.864C770.85 331.011 770.538 331.148 770.14 331.273C769.754 331.386 769.316 331.494 768.827 331.597C768.339 331.687 767.85 331.773 767.362 331.852C766.873 331.92 766.43 331.983 766.032 332.04C765.18 332.165 764.435 332.364 763.799 332.636C763.163 332.909 762.668 333.278 762.316 333.744C761.964 334.199 761.788 334.767 761.788 335.449C761.788 336.438 762.146 337.193 762.862 337.716C763.589 338.227 764.509 338.483 765.623 338.483ZM795.751 343.511C793.069 343.511 790.762 342.943 788.83 341.807C786.91 340.659 785.433 339.068 784.398 337.034C783.376 335 782.864 332.659 782.864 330.011C782.864 327.33 783.381 324.977 784.415 322.955C785.461 320.92 786.944 319.335 788.864 318.199C790.785 317.051 793.069 316.477 795.717 316.477C798.001 316.477 800.001 316.892 801.717 317.722C803.433 318.551 804.79 319.716 805.79 321.216C806.79 322.716 807.342 324.477 807.444 326.5H800.592C800.398 325.193 799.887 324.142 799.058 323.347C798.239 322.54 797.165 322.136 795.836 322.136C794.711 322.136 793.728 322.443 792.887 323.057C792.058 323.659 791.41 324.54 790.944 325.699C790.478 326.858 790.245 328.261 790.245 329.909C790.245 331.58 790.472 333 790.927 334.17C791.393 335.341 792.046 336.233 792.887 336.847C793.728 337.46 794.711 337.767 795.836 337.767C796.665 337.767 797.41 337.597 798.069 337.256C798.739 336.915 799.29 336.42 799.722 335.773C800.165 335.114 800.455 334.324 800.592 333.403H807.444C807.33 335.403 806.785 337.165 805.808 338.688C804.842 340.199 803.506 341.381 801.802 342.233C800.097 343.085 798.08 343.511 795.751 343.511ZM812.093 343V316.818H819.354V343H812.093ZM815.741 313.443C814.661 313.443 813.735 313.085 812.962 312.369C812.201 311.642 811.82 310.773 811.82 309.761C811.82 308.761 812.201 307.903 812.962 307.188C813.735 306.46 814.661 306.097 815.741 306.097C816.82 306.097 817.741 306.46 818.502 307.188C819.275 307.903 819.661 308.761 819.661 309.761C819.661 310.773 819.275 311.642 818.502 312.369C817.741 313.085 816.82 313.443 815.741 313.443ZM837.001 343.511C834.353 343.511 832.063 342.949 830.131 341.824C828.211 340.687 826.728 339.108 825.683 337.085C824.637 335.051 824.114 332.693 824.114 330.011C824.114 327.307 824.637 324.943 825.683 322.92C826.728 320.886 828.211 319.307 830.131 318.182C832.063 317.045 834.353 316.477 837.001 316.477C839.648 316.477 841.933 317.045 843.853 318.182C845.785 319.307 847.273 320.886 848.319 322.92C849.364 324.943 849.887 327.307 849.887 330.011C849.887 332.693 849.364 335.051 848.319 337.085C847.273 339.108 845.785 340.687 843.853 341.824C841.933 342.949 839.648 343.511 837.001 343.511ZM837.035 337.886C838.239 337.886 839.245 337.545 840.052 336.864C840.859 336.17 841.467 335.227 841.876 334.034C842.296 332.841 842.506 331.483 842.506 329.96C842.506 328.438 842.296 327.08 841.876 325.886C841.467 324.693 840.859 323.75 840.052 323.057C839.245 322.364 838.239 322.017 837.035 322.017C835.819 322.017 834.796 322.364 833.967 323.057C833.148 323.75 832.529 324.693 832.109 325.886C831.7 327.08 831.495 328.438 831.495 329.96C831.495 331.483 831.7 332.841 832.109 334.034C832.529 335.227 833.148 336.17 833.967 336.864C834.796 337.545 835.819 337.886 837.035 337.886ZM834.393 313.443L838.006 305.688H844.722L839.523 313.443H834.393ZM861.87 327.864V343H854.609V316.818H861.529V321.438H861.836C862.415 319.915 863.387 318.71 864.751 317.824C866.114 316.926 867.768 316.477 869.711 316.477C871.529 316.477 873.114 316.875 874.467 317.67C875.819 318.466 876.87 319.602 877.62 321.08C878.37 322.545 878.745 324.295 878.745 326.33V343H871.484V327.625C871.495 326.023 871.086 324.773 870.256 323.875C869.427 322.966 868.285 322.511 866.83 322.511C865.853 322.511 864.989 322.722 864.239 323.142C863.501 323.562 862.921 324.176 862.501 324.983C862.092 325.778 861.881 326.739 861.87 327.864ZM184.288 401.426C182.299 401.426 180.498 400.915 178.884 399.892C177.282 398.858 176.009 397.341 175.066 395.341C174.134 393.33 173.668 390.864 173.668 387.943C173.668 384.943 174.151 382.449 175.117 380.46C176.083 378.46 177.367 376.966 178.969 375.977C180.583 374.977 182.35 374.477 184.271 374.477C185.737 374.477 186.958 374.727 187.935 375.227C188.924 375.716 189.719 376.33 190.322 377.068C190.935 377.795 191.401 378.511 191.719 379.216H191.941V366.091H199.185V401H192.026V396.807H191.719C191.379 397.534 190.896 398.256 190.271 398.972C189.657 399.676 188.856 400.261 187.867 400.727C186.89 401.193 185.697 401.426 184.288 401.426ZM186.589 395.648C187.759 395.648 188.748 395.33 189.555 394.693C190.373 394.045 190.998 393.142 191.43 391.983C191.873 390.824 192.094 389.466 192.094 387.909C192.094 386.352 191.879 385 191.447 383.852C191.015 382.705 190.39 381.818 189.572 381.193C188.754 380.568 187.759 380.256 186.589 380.256C185.396 380.256 184.39 380.58 183.572 381.227C182.754 381.875 182.134 382.773 181.714 383.92C181.293 385.068 181.083 386.398 181.083 387.909C181.083 389.432 181.293 390.778 181.714 391.949C182.146 393.108 182.765 394.017 183.572 394.676C184.39 395.324 185.396 395.648 186.589 395.648ZM217.087 401.511C214.394 401.511 212.076 400.966 210.133 399.875C208.201 398.773 206.712 397.216 205.667 395.205C204.621 393.182 204.099 390.79 204.099 388.028C204.099 385.335 204.621 382.972 205.667 380.938C206.712 378.903 208.184 377.318 210.082 376.182C211.991 375.045 214.229 374.477 216.798 374.477C218.525 374.477 220.133 374.756 221.621 375.312C223.121 375.858 224.428 376.682 225.542 377.784C226.667 378.886 227.542 380.273 228.167 381.943C228.792 383.602 229.104 385.545 229.104 387.773V389.767H206.996V385.267H222.269C222.269 384.222 222.042 383.295 221.587 382.489C221.133 381.682 220.502 381.051 219.695 380.597C218.9 380.131 217.974 379.898 216.917 379.898C215.815 379.898 214.837 380.153 213.985 380.665C213.144 381.165 212.485 381.841 212.008 382.693C211.531 383.534 211.286 384.472 211.275 385.506V389.784C211.275 391.08 211.513 392.199 211.991 393.142C212.479 394.085 213.167 394.812 214.053 395.324C214.94 395.835 215.991 396.091 217.207 396.091C218.013 396.091 218.752 395.977 219.423 395.75C220.093 395.523 220.667 395.182 221.144 394.727C221.621 394.273 221.985 393.716 222.235 393.057L228.951 393.5C228.61 395.114 227.911 396.523 226.854 397.727C225.809 398.92 224.457 399.852 222.798 400.523C221.15 401.182 219.246 401.511 217.087 401.511ZM245.089 401V366.091H268.612V372.176H252.469V380.494H267.401V386.58H252.469V394.915H268.68V401H245.089ZM296.127 382.284L289.479 382.693C289.366 382.125 289.121 381.614 288.746 381.159C288.371 380.693 287.877 380.324 287.263 380.051C286.661 379.767 285.94 379.625 285.099 379.625C283.974 379.625 283.025 379.864 282.252 380.341C281.479 380.807 281.093 381.432 281.093 382.216C281.093 382.841 281.343 383.369 281.843 383.801C282.343 384.233 283.201 384.58 284.417 384.841L289.156 385.795C291.701 386.318 293.599 387.159 294.849 388.318C296.099 389.477 296.724 391 296.724 392.886C296.724 394.602 296.218 396.108 295.207 397.403C294.207 398.699 292.832 399.71 291.082 400.438C289.343 401.153 287.337 401.511 285.065 401.511C281.599 401.511 278.837 400.79 276.781 399.347C274.735 397.892 273.536 395.915 273.184 393.415L280.326 393.04C280.542 394.097 281.065 394.903 281.894 395.46C282.724 396.006 283.786 396.278 285.082 396.278C286.354 396.278 287.377 396.034 288.15 395.545C288.934 395.045 289.332 394.403 289.343 393.619C289.332 392.96 289.053 392.42 288.508 392C287.962 391.568 287.121 391.239 285.985 391.011L281.451 390.108C278.894 389.597 276.991 388.71 275.741 387.449C274.502 386.187 273.883 384.58 273.883 382.625C273.883 380.943 274.337 379.494 275.246 378.278C276.167 377.062 277.457 376.125 279.116 375.466C280.786 374.807 282.741 374.477 284.979 374.477C288.286 374.477 290.888 375.176 292.786 376.574C294.695 377.972 295.809 379.875 296.127 382.284ZM315.222 374.818V380.273H299.455V374.818H315.222ZM303.035 368.545H310.296V392.955C310.296 393.625 310.398 394.148 310.603 394.523C310.808 394.886 311.092 395.142 311.455 395.29C311.83 395.437 312.262 395.511 312.751 395.511C313.092 395.511 313.433 395.483 313.773 395.426C314.114 395.358 314.376 395.307 314.558 395.273L315.7 400.676C315.336 400.79 314.825 400.92 314.165 401.068C313.506 401.227 312.705 401.324 311.762 401.358C310.012 401.426 308.478 401.193 307.16 400.659C305.853 400.125 304.836 399.295 304.109 398.17C303.381 397.045 303.023 395.625 303.035 393.909V368.545ZM327.418 401.494C325.748 401.494 324.259 401.205 322.952 400.625C321.646 400.034 320.612 399.165 319.85 398.017C319.1 396.858 318.725 395.415 318.725 393.688C318.725 392.233 318.992 391.011 319.526 390.023C320.06 389.034 320.788 388.239 321.708 387.636C322.629 387.034 323.674 386.58 324.844 386.273C326.026 385.966 327.265 385.75 328.56 385.625C330.083 385.466 331.31 385.318 332.242 385.182C333.174 385.034 333.85 384.818 334.271 384.534C334.691 384.25 334.901 383.83 334.901 383.273V383.17C334.901 382.091 334.56 381.256 333.879 380.665C333.208 380.074 332.254 379.778 331.015 379.778C329.708 379.778 328.668 380.068 327.896 380.648C327.123 381.216 326.612 381.932 326.362 382.795L319.646 382.25C319.987 380.659 320.657 379.284 321.657 378.125C322.657 376.955 323.947 376.057 325.526 375.432C327.117 374.795 328.958 374.477 331.049 374.477C332.504 374.477 333.896 374.648 335.225 374.989C336.566 375.33 337.754 375.858 338.788 376.574C339.833 377.29 340.657 378.21 341.259 379.335C341.862 380.449 342.163 381.784 342.163 383.341V401H335.276V397.369H335.072C334.651 398.188 334.089 398.909 333.384 399.534C332.68 400.148 331.833 400.631 330.844 400.983C329.856 401.324 328.714 401.494 327.418 401.494ZM329.498 396.483C330.566 396.483 331.509 396.273 332.327 395.852C333.146 395.42 333.788 394.841 334.254 394.114C334.719 393.386 334.952 392.562 334.952 391.642V388.864C334.725 389.011 334.413 389.148 334.015 389.273C333.629 389.386 333.191 389.494 332.702 389.597C332.214 389.687 331.725 389.773 331.237 389.852C330.748 389.92 330.305 389.983 329.907 390.04C329.055 390.165 328.31 390.364 327.674 390.636C327.038 390.909 326.543 391.278 326.191 391.744C325.839 392.199 325.663 392.767 325.663 393.449C325.663 394.438 326.021 395.193 326.737 395.716C327.464 396.227 328.384 396.483 329.498 396.483ZM357.444 401.426C355.455 401.426 353.654 400.915 352.04 399.892C350.438 398.858 349.165 397.341 348.222 395.341C347.29 393.33 346.825 390.864 346.825 387.943C346.825 384.943 347.308 382.449 348.273 380.46C349.239 378.46 350.523 376.966 352.126 375.977C353.739 374.977 355.506 374.477 357.427 374.477C358.893 374.477 360.114 374.727 361.092 375.227C362.08 375.716 362.876 376.33 363.478 377.068C364.092 377.795 364.558 378.511 364.876 379.216H365.097V366.091H372.342V401H365.183V396.807H364.876C364.535 397.534 364.052 398.256 363.427 398.972C362.813 399.676 362.012 400.261 361.023 400.727C360.046 401.193 358.853 401.426 357.444 401.426ZM359.745 395.648C360.915 395.648 361.904 395.33 362.711 394.693C363.529 394.045 364.154 393.142 364.586 391.983C365.029 390.824 365.251 389.466 365.251 387.909C365.251 386.352 365.035 385 364.603 383.852C364.171 382.705 363.546 381.818 362.728 381.193C361.91 380.568 360.915 380.256 359.745 380.256C358.552 380.256 357.546 380.58 356.728 381.227C355.91 381.875 355.29 382.773 354.87 383.92C354.45 385.068 354.239 386.398 354.239 387.909C354.239 389.432 354.45 390.778 354.87 391.949C355.302 393.108 355.921 394.017 356.728 394.676C357.546 395.324 358.552 395.648 359.745 395.648ZM378.312 401V374.818H385.573V401H378.312ZM379.352 371.443L382.965 363.688H389.681L384.482 371.443H379.352ZM413.174 382.284L406.526 382.693C406.413 382.125 406.168 381.614 405.793 381.159C405.418 380.693 404.924 380.324 404.31 380.051C403.708 379.767 402.987 379.625 402.146 379.625C401.021 379.625 400.072 379.864 399.299 380.341C398.526 380.807 398.14 381.432 398.14 382.216C398.14 382.841 398.39 383.369 398.89 383.801C399.39 384.233 400.248 384.58 401.464 384.841L406.202 385.795C408.748 386.318 410.646 387.159 411.896 388.318C413.146 389.477 413.771 391 413.771 392.886C413.771 394.602 413.265 396.108 412.254 397.403C411.254 398.699 409.879 399.71 408.129 400.438C406.39 401.153 404.384 401.511 402.112 401.511C398.646 401.511 395.884 400.79 393.827 399.347C391.782 397.892 390.583 395.915 390.231 393.415L397.373 393.04C397.589 394.097 398.112 394.903 398.941 395.46C399.771 396.006 400.833 396.278 402.129 396.278C403.401 396.278 404.424 396.034 405.197 395.545C405.981 395.045 406.379 394.403 406.39 393.619C406.379 392.96 406.1 392.42 405.555 392C405.009 391.568 404.168 391.239 403.032 391.011L398.498 390.108C395.941 389.597 394.038 388.71 392.788 387.449C391.549 386.187 390.93 384.58 390.93 382.625C390.93 380.943 391.384 379.494 392.293 378.278C393.214 377.062 394.504 376.125 396.163 375.466C397.833 374.807 399.788 374.477 402.026 374.477C405.333 374.477 407.935 375.176 409.833 376.574C411.742 377.972 412.856 379.875 413.174 382.284ZM432.269 374.818V380.273H416.502V374.818H432.269ZM420.082 368.545H427.343V392.955C427.343 393.625 427.445 394.148 427.65 394.523C427.854 394.886 428.138 395.142 428.502 395.29C428.877 395.437 429.309 395.511 429.798 395.511C430.138 395.511 430.479 395.483 430.82 395.426C431.161 395.358 431.423 395.307 431.604 395.273L432.746 400.676C432.383 400.79 431.871 400.92 431.212 401.068C430.553 401.227 429.752 401.324 428.809 401.358C427.059 401.426 425.525 401.193 424.207 400.659C422.9 400.125 421.883 399.295 421.156 398.17C420.428 397.045 420.07 395.625 420.082 393.909V368.545ZM436.999 401V374.818H444.261V401H436.999ZM440.647 371.443C439.567 371.443 438.641 371.085 437.869 370.369C437.107 369.642 436.727 368.773 436.727 367.761C436.727 366.761 437.107 365.903 437.869 365.188C438.641 364.46 439.567 364.097 440.647 364.097C441.727 364.097 442.647 364.46 443.408 365.188C444.181 365.903 444.567 366.761 444.567 367.761C444.567 368.773 444.181 369.642 443.408 370.369C442.647 371.085 441.727 371.443 440.647 371.443ZM461.907 401.511C459.225 401.511 456.918 400.943 454.987 399.807C453.066 398.659 451.589 397.068 450.555 395.034C449.532 393 449.021 390.659 449.021 388.011C449.021 385.33 449.538 382.977 450.572 380.955C451.617 378.92 453.1 377.335 455.021 376.199C456.941 375.051 459.225 374.477 461.873 374.477C464.157 374.477 466.157 374.892 467.873 375.722C469.589 376.551 470.947 377.716 471.947 379.216C472.947 380.716 473.498 382.477 473.6 384.5H466.748C466.555 383.193 466.043 382.142 465.214 381.347C464.396 380.54 463.322 380.136 461.992 380.136C460.867 380.136 459.884 380.443 459.043 381.057C458.214 381.659 457.566 382.54 457.1 383.699C456.634 384.858 456.401 386.261 456.401 387.909C456.401 389.58 456.629 391 457.083 392.17C457.549 393.341 458.202 394.233 459.043 394.847C459.884 395.46 460.867 395.767 461.992 395.767C462.822 395.767 463.566 395.597 464.225 395.256C464.896 394.915 465.447 394.42 465.879 393.773C466.322 393.114 466.612 392.324 466.748 391.403H473.6C473.487 393.403 472.941 395.165 471.964 396.688C470.998 398.199 469.663 399.381 467.958 400.233C466.254 401.085 464.237 401.511 461.907 401.511ZM485.715 401.494C484.045 401.494 482.556 401.205 481.249 400.625C479.942 400.034 478.908 399.165 478.147 398.017C477.397 396.858 477.022 395.415 477.022 393.688C477.022 392.233 477.289 391.011 477.823 390.023C478.357 389.034 479.085 388.239 480.005 387.636C480.925 387.034 481.971 386.58 483.141 386.273C484.323 385.966 485.562 385.75 486.857 385.625C488.38 385.466 489.607 385.318 490.539 385.182C491.471 385.034 492.147 384.818 492.567 384.534C492.988 384.25 493.198 383.83 493.198 383.273V383.17C493.198 382.091 492.857 381.256 492.175 380.665C491.505 380.074 490.55 379.778 489.312 379.778C488.005 379.778 486.965 380.068 486.192 380.648C485.42 381.216 484.908 381.932 484.658 382.795L477.942 382.25C478.283 380.659 478.954 379.284 479.954 378.125C480.954 376.955 482.244 376.057 483.823 375.432C485.414 374.795 487.255 374.477 489.346 374.477C490.8 374.477 492.192 374.648 493.522 374.989C494.863 375.33 496.05 375.858 497.085 376.574C498.13 377.29 498.954 378.21 499.556 379.335C500.158 380.449 500.46 381.784 500.46 383.341V401H493.573V397.369H493.369C492.948 398.188 492.386 398.909 491.681 399.534C490.977 400.148 490.13 400.631 489.141 400.983C488.153 401.324 487.011 401.494 485.715 401.494ZM487.795 396.483C488.863 396.483 489.806 396.273 490.624 395.852C491.442 395.42 492.085 394.841 492.55 394.114C493.016 393.386 493.249 392.562 493.249 391.642V388.864C493.022 389.011 492.71 389.148 492.312 389.273C491.925 389.386 491.488 389.494 490.999 389.597C490.511 389.687 490.022 389.773 489.533 389.852C489.045 389.92 488.602 389.983 488.204 390.04C487.352 390.165 486.607 390.364 485.971 390.636C485.335 390.909 484.84 391.278 484.488 391.744C484.136 392.199 483.96 392.767 483.96 393.449C483.96 394.438 484.317 395.193 485.033 395.716C485.761 396.227 486.681 396.483 487.795 396.483ZM517.339 401V366.091H540.862V372.176H524.719V380.494H539.651V386.58H524.719V394.915H540.93V401H517.339ZM553.854 366.091V401H546.593V366.091H553.854ZM571.603 401.511C568.91 401.511 566.592 400.966 564.648 399.875C562.717 398.773 561.228 397.216 560.183 395.205C559.137 393.182 558.614 390.79 558.614 388.028C558.614 385.335 559.137 382.972 560.183 380.938C561.228 378.903 562.7 377.318 564.597 376.182C566.506 375.045 568.745 374.477 571.313 374.477C573.04 374.477 574.648 374.756 576.137 375.312C577.637 375.858 578.944 376.682 580.058 377.784C581.183 378.886 582.058 380.273 582.683 381.943C583.308 383.602 583.62 385.545 583.62 387.773V389.767H561.512V385.267H576.785C576.785 384.222 576.558 383.295 576.103 382.489C575.648 381.682 575.018 381.051 574.211 380.597C573.415 380.131 572.489 379.898 571.433 379.898C570.33 379.898 569.353 380.153 568.501 380.665C567.66 381.165 567.001 381.841 566.523 382.693C566.046 383.534 565.802 384.472 565.79 385.506V389.784C565.79 391.08 566.029 392.199 566.506 393.142C566.995 394.085 567.683 394.812 568.569 395.324C569.455 395.835 570.506 396.091 571.722 396.091C572.529 396.091 573.268 395.977 573.938 395.75C574.609 395.523 575.183 395.182 575.66 394.727C576.137 394.273 576.501 393.716 576.751 393.057L583.467 393.5C583.126 395.114 582.427 396.523 581.37 397.727C580.325 398.92 578.972 399.852 577.313 400.523C575.665 401.182 573.762 401.511 571.603 401.511ZM600.188 401.511C597.506 401.511 595.2 400.943 593.268 399.807C591.347 398.659 589.87 397.068 588.836 395.034C587.813 393 587.302 390.659 587.302 388.011C587.302 385.33 587.819 382.977 588.853 380.955C589.898 378.92 591.381 377.335 593.302 376.199C595.222 375.051 597.506 374.477 600.154 374.477C602.438 374.477 604.438 374.892 606.154 375.722C607.87 376.551 609.228 377.716 610.228 379.216C611.228 380.716 611.779 382.477 611.881 384.5H605.029C604.836 383.193 604.325 382.142 603.495 381.347C602.677 380.54 601.603 380.136 600.273 380.136C599.148 380.136 598.165 380.443 597.325 381.057C596.495 381.659 595.847 382.54 595.381 383.699C594.915 384.858 594.683 386.261 594.683 387.909C594.683 389.58 594.91 391 595.364 392.17C595.83 393.341 596.484 394.233 597.325 394.847C598.165 395.46 599.148 395.767 600.273 395.767C601.103 395.767 601.847 395.597 602.506 395.256C603.177 394.915 603.728 394.42 604.16 393.773C604.603 393.114 604.893 392.324 605.029 391.403H611.881C611.768 393.403 611.222 395.165 610.245 396.688C609.279 398.199 607.944 399.381 606.239 400.233C604.535 401.085 602.518 401.511 600.188 401.511ZM630.457 374.818V380.273H614.69V374.818H630.457ZM618.269 368.545H625.531V392.955C625.531 393.625 625.633 394.148 625.837 394.523C626.042 394.886 626.326 395.142 626.69 395.29C627.065 395.437 627.496 395.511 627.985 395.511C628.326 395.511 628.667 395.483 629.008 395.426C629.349 395.358 629.61 395.307 629.792 395.273L630.934 400.676C630.57 400.79 630.059 400.92 629.4 401.068C628.741 401.227 627.94 401.324 626.996 401.358C625.246 401.426 623.712 401.193 622.394 400.659C621.087 400.125 620.07 399.295 619.343 398.17C618.616 397.045 618.258 395.625 618.269 393.909V368.545ZM646.735 401.511C644.087 401.511 641.798 400.949 639.866 399.824C637.945 398.687 636.462 397.108 635.417 395.085C634.371 393.051 633.849 390.693 633.849 388.011C633.849 385.307 634.371 382.943 635.417 380.92C636.462 378.886 637.945 377.307 639.866 376.182C641.798 375.045 644.087 374.477 646.735 374.477C649.383 374.477 651.667 375.045 653.587 376.182C655.519 377.307 657.008 378.886 658.053 380.92C659.099 382.943 659.621 385.307 659.621 388.011C659.621 390.693 659.099 393.051 658.053 395.085C657.008 397.108 655.519 398.687 653.587 399.824C651.667 400.949 649.383 401.511 646.735 401.511ZM646.769 395.886C647.974 395.886 648.979 395.545 649.786 394.864C650.593 394.17 651.201 393.227 651.61 392.034C652.031 390.841 652.241 389.483 652.241 387.96C652.241 386.438 652.031 385.08 651.61 383.886C651.201 382.693 650.593 381.75 649.786 381.057C648.979 380.364 647.974 380.017 646.769 380.017C645.553 380.017 644.531 380.364 643.701 381.057C642.883 381.75 642.263 382.693 641.843 383.886C641.434 385.08 641.229 386.438 641.229 387.96C641.229 389.483 641.434 390.841 641.843 392.034C642.263 393.227 642.883 394.17 643.701 394.864C644.531 395.545 645.553 395.886 646.769 395.886ZM664.343 401V374.818H671.383V379.386H671.656C672.133 377.761 672.934 376.534 674.059 375.705C675.184 374.864 676.479 374.443 677.945 374.443C678.309 374.443 678.701 374.466 679.121 374.511C679.542 374.557 679.911 374.619 680.229 374.699V381.142C679.888 381.04 679.417 380.949 678.815 380.869C678.212 380.79 677.661 380.75 677.161 380.75C676.093 380.75 675.138 380.983 674.298 381.449C673.468 381.903 672.809 382.54 672.32 383.358C671.843 384.176 671.604 385.119 671.604 386.188V401H664.343ZM690.7 401.494C689.029 401.494 687.54 401.205 686.234 400.625C684.927 400.034 683.893 399.165 683.131 398.017C682.381 396.858 682.006 395.415 682.006 393.688C682.006 392.233 682.273 391.011 682.808 390.023C683.342 389.034 684.069 388.239 684.989 387.636C685.91 387.034 686.955 386.58 688.126 386.273C689.308 385.966 690.546 385.75 691.842 385.625C693.364 385.466 694.592 385.318 695.523 385.182C696.455 385.034 697.131 384.818 697.552 384.534C697.972 384.25 698.183 383.83 698.183 383.273V383.17C698.183 382.091 697.842 381.256 697.16 380.665C696.489 380.074 695.535 379.778 694.296 379.778C692.989 379.778 691.95 380.068 691.177 380.648C690.404 381.216 689.893 381.932 689.643 382.795L682.927 382.25C683.268 380.659 683.938 379.284 684.938 378.125C685.938 376.955 687.228 376.057 688.808 375.432C690.398 374.795 692.239 374.477 694.33 374.477C695.785 374.477 697.177 374.648 698.506 374.989C699.847 375.33 701.035 375.858 702.069 376.574C703.114 377.29 703.938 378.21 704.54 379.335C705.143 380.449 705.444 381.784 705.444 383.341V401H698.558V397.369H698.353C697.933 398.188 697.37 398.909 696.665 399.534C695.961 400.148 695.114 400.631 694.126 400.983C693.137 401.324 691.995 401.494 690.7 401.494ZM692.779 396.483C693.847 396.483 694.79 396.273 695.609 395.852C696.427 395.42 697.069 394.841 697.535 394.114C698.001 393.386 698.234 392.562 698.234 391.642V388.864C698.006 389.011 697.694 389.148 697.296 389.273C696.91 389.386 696.472 389.494 695.984 389.597C695.495 389.687 695.006 389.773 694.518 389.852C694.029 389.92 693.586 389.983 693.188 390.04C692.336 390.165 691.592 390.364 690.955 390.636C690.319 390.909 689.825 391.278 689.472 391.744C689.12 392.199 688.944 392.767 688.944 393.449C688.944 394.438 689.302 395.193 690.018 395.716C690.745 396.227 691.665 396.483 692.779 396.483ZM718.339 366.091V401H711.077V366.091H718.339Z" fill="black"/>
<defs>
<filter id="filter0_d_127_364" x="7" y="10" width="887" height="279" filterUnits="userSpaceOnUse" color-interpolation-filters="sRGB">
<feFlood flood-opacity="0" result="BackgroundImageFix"/>
<feColorMatrix in="SourceAlpha" type="matrix" values="0 0 0 0 0 0 0 0 0 0 0 0 0 0 0 0 0 0 127 0" result="hardAlpha"/>
<feOffset dx="4" dy="4"/>
<feGaussianBlur stdDeviation="2"/>
<feComposite in2="hardAlpha" operator="out"/>
<feColorMatrix type="matrix" values="0 0 0 0 0 0 0 0 0 0 0 0 0 0 0 0 0 0 0.25 0"/>
<feBlend mode="normal" in2="BackgroundImageFix" result="effect1_dropShadow_127_364"/>
<feBlend mode="normal" in="SourceGraphic" in2="effect1_dropShadow_127_364" result="shape"/>
</filter>
</defs>
</svg>
